<?xml version="1.0" ?><!DOCTYPE svg  PUBLIC '-//W3C//DTD SVG 1.1//EN'  'http://www.w3.org/Graphics/SVG/1.1/DTD/svg11.dtd'><svg height="2048px" style="shape-rendering:geometricPrecision; text-rendering:geometricPrecision; image-rendering:optimizeQuality; fill-rule:evenodd; clip-rule:evenodd" viewBox="0 0 2048 2048" width="2048px" xml:space="preserve" xmlns="http://www.w3.org/2000/svg" xmlns:xlink="http://www.w3.org/1999/xlink"><defs><style type="text/css">
   <![CDATA[
    .fil11 {fill:none}
    .fil8 {fill:#383838}
    .fil7 {fill:#4680DC}
    .fil6 {fill:#5BB176}
    .fil10 {fill:#604542}
    .fil3 {fill:#906257}
    .fil9 {fill:#C8B8A9}
    .fil4 {fill:#EE3D3E}
    .fil5 {fill:#EEB73D}
    .fil0 {fill:#363636;fill-rule:nonzero}
    .fil1 {fill:#464646;fill-rule:nonzero}
    .fil2 {fill:#E6D3C1;fill-rule:nonzero}
   ]]>
  </style></defs><g id="Layer_x0020_1"><g id="_337153912"><path class="fil0" d="M766.206 1247.85c66.0532,66.0508 157.241,106.962 257.794,106.962 100.551,0 191.751,-40.9158 257.815,-106.97 66.0579,-66.0508 106.98,-157.236 106.98,-257.779 0,-100.579 -40.8886,-191.716 -106.895,-257.688 -66.0626,-66.0308 -157.293,-106.917 -257.9,-106.917 -100.608,0 -191.828,40.8839 -257.88,106.91 -66.0001,65.9717 -106.88,157.113 -106.88,257.695 0,100.549 40.9146,191.736 106.967,257.788z" id="_316004800"/><path class="fil1" d="M816.898 783.086c53.0445,-53.0788 126.274,-85.8957 207.102,-85.8957 80.8241,0 154.055,32.8181 207.099,85.8981 52.9855,53.0197 85.7623,126.248 85.7623,207.141 0,80.8607 -32.7839,154.078 -85.7847,207.077 -52.9985,53.0008 -126.216,85.7847 -207.077,85.7847 -80.8654,0 -154.08,-32.7839 -207.078,-85.7823 -53.0008,-52.9973 -85.7835,-126.216 -85.7835,-207.079 0,-80.8961 32.7733,-154.123 85.7599,-207.143z" id="_316004584"/><path class="fil2" d="M1440.29 1792l-794.653 0c-122.812,0 -219.901,-32.7166 -286.664,-93.9816 -67.1091,-61.5851 -102.976,-151.29 -102.976,-264.929l0 -622.26 413.377 0c-27.3744,53.8831 -42.8185,114.789 -42.8185,179.231 0,109.57 44.5772,208.93 116.542,280.894 71.9658,71.9634 171.327,116.538 280.901,116.538 109.571,0 208.944,-44.5796 280.921,-116.545 71.9705,-71.9623 116.555,-171.32 116.555,-280.886 0,-64.4422 -15.4453,-125.349 -42.8256,-179.231l413.351 0 0 617.832c0,101.646 -38.563,192.391 -101.757,257.775 -63.3497,65.5465 -151.322,105.563 -249.951,105.563z" id="_316005064"/><path class="fil3" d="M255.999 643.066c0,-53.3587 8.36339,-102.2 23.0717,-145.878 16.3606,-50.5784 41.028,-94.6938 72.7536,-130.896 17.498,-19.9654 37.1044,-37.5024 58.6111,-52.3772 51.6981,-37.6488 110.882,-57.9154 168.539,-57.9154l25.7941 0 37.5366 0 32.6823 0 698.025 0 32.6823 0 37.1847 0 0.351969 0 25.7941 0c57.6567,0 116.841,20.2666 168.539,57.9154 21.5067,14.8748 41.113,32.4118 58.6111,52.3772 31.7256,36.202 56.393,80.3174 72.7536,130.896 14.7083,43.6784 23.0717,92.5194 23.0717,145.878l0 8.99883 0 126.084 -431.955 0 -0.022441 0c-15.8197,-24.9732 -34.3441,-48.0768 -55.1646,-68.889 -25.8638,-25.8473 -55.2603,-48.163 -87.3922,-66.1465l-0.00944883 -0.00354331c-1.39252,-0.779528 -2.79449,-1.55197 -4.2,-2.31732l-0.00708662 -0.00354331c-4.22008,-2.29488 -8.48741,-4.51536 -12.7984,-6.66024l-0.00708662 -0.00236221c-1.43504,-0.714567 -2.87481,-1.41969 -4.32048,-2.11654l-0.00708662 -0.00354331c-1.44449,-0.69567 -2.89488,-1.38662 -4.35,-2.06693l-0.00708662 -0.00236221c-2.91142,-1.36181 -5.8441,-2.68819 -8.79331,-3.98032l-0.00590552 -0.00236221c-1.47402,-0.646063 -2.95276,-1.28386 -4.43622,-1.91221l-0.00472441 -0.0011811c-1.48583,-0.628347 -2.97166,-1.24843 -4.46457,-1.85906l-0.00472441 -0.00236221c-1.4941,-0.61063 -2.99055,-1.21299 -4.49174,-1.80591l-0.00590552 -0.0011811c-1.50236,-0.591733 -3.00709,-1.17638 -4.51772,-1.75276l-0.00472441 -0.0011811c-1.51181,-0.575197 -3.02599,-1.14095 -4.54607,-1.69961l-0.00354331 -0.0011811c-1.5189,-0.5563 -3.04252,-1.10433 -4.57087,-1.6441l-0.00354331 -0.00236221c-1.52835,-0.538583 -3.06142,-1.0689 -4.59804,-1.58977l-0.00354331 -0.0011811c-1.5378,-0.520867 -3.07796,-1.03228 -4.62284,-1.53543l-0.00354331 0c-1.5437,-0.50315 -3.09567,-0.994489 -4.64764,-1.47992l-0.00354331 -0.0011811c-1.55315,-0.485433 -3.10984,-0.959056 -4.67126,-1.42441l-0.00354331 0c-1.56142,-0.464174 -3.12756,-0.922442 -4.69607,-1.3689l-0.00236221 0c-1.56969,-0.446457 -3.14528,-0.883465 -4.72205,-1.31102l-0.00236221 -0.0011811c-1.57677,-0.427559 -3.15827,-0.84567 -4.74331,-1.25551l-0.0011811 -0.0011811c-1.58504,-0.408662 -3.17362,-0.806694 -4.76811,-1.19646l-0.00236221 -0.0011811c-1.59213,-0.388583 -3.19016,-0.767717 -4.78937,-1.13858l-0.0011811 -0.0011811c-1.60039,-0.369685 -3.20433,-0.729922 -4.81181,-1.08071l-0.0011811 -0.0011811c-1.60748,-0.350788 -3.21851,-0.689764 -4.83307,-1.02165l-0.0011811 -0.0011811c-1.61575,-0.330709 -3.23268,-0.651969 -4.85552,-0.96378l-0.0011811 0c-1.62284,-0.31063 -3.24567,-0.612993 -4.87559,-0.904725l-0.0011811 0c-1.62992,-0.291733 -3.26103,-0.574016 -4.89685,-0.84567 -1.63583,-0.272835 -3.2752,-0.532678 -4.91693,-0.785434l-0.0011811 0c-1.64291,-0.251575 -3.28701,-0.491339 -4.93583,-0.722835 -1.64882,-0.232677 -3.30118,-0.452363 -4.95709,-0.66378 -1.65591,-0.211417 -3.31418,-0.412205 -4.97481,-0.603544 -1.66299,-0.190158 -3.32717,-0.369685 -4.9937,-0.539764 -1.6689,-0.170079 -3.3378,-0.328347 -5.01142,-0.478347 -1.67244,-0.148819 -3.35079,-0.288189 -5.03032,-0.415748 -1.67835,-0.12874 -3.36142,-0.245669 -5.04685,-0.35315 -1.68425,-0.10748 -3.37087,-0.204331 -5.06221,-0.28937 -1.69016,-0.0862205 -3.38504,-0.16063 -5.08111,-0.225591 -1.69488,-0.0649607 -3.39449,-0.11811 -5.09528,-0.161811 -1.70197,-0.0437008 -3.40394,-0.0767717 -5.11181,-0.0980316l-0.0011811 0c-1.70551,-0.0212599 -3.41457,-0.0330709 -5.12599,-0.0330709 -1.71142,0 -3.41929,0.011811 -5.12599,0.0330709l-0.0011811 0c-1.70669,0.0212599 -3.41103,0.0543308 -5.11181,0.0980316 -1.70197,0.0437008 -3.4004,0.0956694 -5.09528,0.161811 -1.69606,0.0637796 -3.38977,0.13937 -5.08111,0.225591 -1.69134,0.0850394 -3.37796,0.18189 -5.06221,0.28937 -1.68543,0.106299 -3.36851,0.225591 -5.04685,0.35315 -1.67953,0.127559 -3.3567,0.266929 -5.03032,0.415748 -1.67362,0.148819 -3.34252,0.308268 -5.01142,0.478347 -1.66654,0.170079 -3.33071,0.349607 -4.9937,0.539764 -1.66181,0.191339 -3.32008,0.392126 -4.97481,0.603544 -1.65591,0.211417 -3.30827,0.431103 -4.95709,0.66378 -1.64764,0.230315 -3.2941,0.472441 -4.93583,0.722835l-0.0011811 0c-1.64291,0.252756 -3.27992,0.51378 -4.91693,0.785434 -1.63347,0.272835 -3.26811,0.553937 -4.89685,0.84567l-0.0011811 0c-1.62874,0.291733 -3.25276,0.594095 -4.87559,0.904725l-0.0011811 0c-1.62284,0.311811 -3.23977,0.63189 -4.85552,0.96378l-0.0011811 0.0011811c-1.61457,0.330709 -3.22559,0.670867 -4.83307,1.02165l-0.0011811 0.0011811c-1.60748,0.350788 -3.21142,0.711024 -4.81181,1.08071l-0.0011811 0.0011811c-1.60039,0.370866 -3.19607,0.748819 -4.78937,1.13858l-0.00236221 0.0011811c-1.59449,0.388583 -3.18307,0.787796 -4.76811,1.19646l-0.0011811 0.0011811c-1.58622,0.409843 -3.16536,0.826772 -4.74331,1.25551l-0.00236221 0.0011811c-1.57795,0.426378 -3.15236,0.863386 -4.72205,1.31102l-0.00236221 0c-1.56851,0.446457 -3.13583,0.903544 -4.69607,1.3689l-0.00354331 0c-1.56024,0.464174 -3.11929,0.940158 -4.67126,1.42441l-0.00354331 0.0011811c-1.55197,0.485433 -3.10276,0.976772 -4.64764,1.47992l-0.00354331 0c-1.54488,0.50315 -3.08504,1.01457 -4.62284,1.53543l-0.00354331 0.0011811c-1.53662,0.520867 -3.06969,1.05118 -4.59804,1.58977l-0.00354331 0.00236221c-1.52835,0.540945 -3.05197,1.0878 -4.57087,1.6441l-0.00354331 0.0011811c-1.52008,0.557481 -3.03544,1.12441 -4.54607,1.69961l-0.00472441 0.0011811c-1.51063,0.576378 -3.01654,1.16102 -4.51772,1.75276l-0.00590552 0.0011811c-1.50236,0.592914 -2.99764,1.19528 -4.49174,1.80591l-0.00472441 0.00236221c-1.49291,0.61063 -2.97992,1.23071 -4.46457,1.85906l-0.00472441 0.0011811c-1.48228,0.628347 -2.96221,1.26614 -4.43622,1.91221l-0.00590552 0.00236221c-2.94921,1.29213 -5.88189,2.61969 -8.79331,3.98032l-0.00708662 0.00236221c-1.45512,0.679134 -2.90551,1.37008 -4.35,2.06693l-0.00708662 0.00354331c-1.44567,0.696851 -2.88544,1.40197 -4.32048,2.11654l-0.00708662 0.00236221c-4.31221,2.14488 -8.57717,4.36654 -12.7973,6.66024l-0.00826772 0.00354331c-1.40433,0.764174 -2.80512,1.5378 -4.2,2.31732l-0.00944883 0.00354331c-32.1331,17.9811 -61.5319,40.2957 -87.3922,66.1465 -20.8205,20.8122 -39.3449,43.9158 -55.1646,68.889l-0.022441 0 -431.955 0 0 -126.084 0 -8.99883z" id="_316005256"/><path class="fil4" d="M337.544 383.745c4.58622,-6.00473 9.34843,-11.824 14.2807,-17.4532 17.498,-19.9654 37.1044,-37.5024 58.6111,-52.3772l1.40669 -1.01457 0 465.248 -74.2985 0 0 -394.403z" id="_337150288"/><path class="fil5" d="M411.842 312.9c23.5229,-16.9429 48.5693,-30.3 74.2985,-39.802l0 505.05 -74.2985 0 0 -465.248z" id="_337150264"/><path class="fil6" d="M486.141 273.098c24.3921,-9.00946 49.3961,-14.5547 74.2973,-16.4055l0 521.456 -74.2973 0 0 -505.05z" id="_337150456"/><path class="fil7" d="M560.438 256.693c6.18898,-0.459449 12.3709,-0.693308 18.5362,-0.693308l25.7941 0 29.9681 0 0 522.149 -74.2985 0 0 -521.456z" id="_337150168"/><path class="fil8" d="M1583.25 589.662l0 -102.301c0,-23.4496 -9.58465,-44.7508 -25.0666,-60.2067 -15.4417,-15.4134 -36.7418,-24.9626 -60.2256,-24.9626l-102.178 0c-23.4827,0 -44.7839,9.54922 -60.2245,24.9626 -15.4819,15.4559 -25.0677,36.7571 -25.0677,60.2067l0 102.301c0,23.5063 9.55394,44.8181 24.9886,60.2611 15.4772,15.4831 36.8044,25.0642 60.3036,25.0642l102.178 0c23.4992,0 44.8264,-9.58111 60.3036,-25.0642 15.4347,-15.4429 24.9886,-36.7548 24.9886,-60.2611z" id="_337150696"/><path class="fil9" d="M687.977 778.149l-431.978 0 0 32.6823 413.377 0c-27.3744,53.8831 -42.8185,114.789 -42.8185,179.231 0,109.57 44.5772,208.93 116.542,280.894 71.9658,71.9634 171.327,116.538 280.901,116.538 109.571,0 208.944,-44.5796 280.921,-116.545 71.9705,-71.9623 116.555,-171.32 116.555,-280.886 0,-64.4422 -15.4453,-125.349 -42.8256,-179.231l413.351 0 0 -32.6823 -431.955 0c-15.8221,-24.9709 -34.3453,-48.0721 -55.1658,-68.8819 -71.98,-71.9434 -171.341,-116.492 -280.879,-116.492 -109.539,0 -208.891,44.5465 -280.858,116.485 -20.8205,20.8122 -39.3449,43.9158 -55.1646,68.889zm-28.7374 211.914c0,-100.583 40.8803,-191.724 106.88,-257.695 66.052,-66.026 157.272,-106.91 257.88,-106.91 100.606,0 191.837,40.8863 257.9,106.917 66.006,65.9729 106.895,157.109 106.895,257.688 0,100.544 -40.9217,191.728 -106.98,257.779 -66.0638,66.0544 -157.264,106.97 -257.815,106.97 -100.552,0 -191.74,-40.9111 -257.794,-106.962 -66.052,-66.052 -106.967,-157.239 -106.967,-257.788z" id="_337150744"/><rect class="fil10" height="143.008" id="_337154032" rx="71.504" ry="71.504" width="296.875" x="337.702" y="718.249"/></g></g><rect class="fil11" height="2048" width="2048"/></svg>